<svg id="Layer_5" enable-background="new 0 0 64 64" height="512" viewBox="0 0 64 64" width="512" xmlns="http://www.w3.org/2000/svg" xmlns:xlink="http://www.w3.org/1999/xlink"><linearGradient id="SVGID_1_" gradientUnits="userSpaceOnUse" x1="32" x2="32" y1="63" y2="1"><stop offset="0" stop-color="#9f2fff"/><stop offset="1" stop-color="#0bb1d3"/></linearGradient><path d="m30 49h-2v-2h2zm6-2h-2v2h2zm-33 2.528c0-1.153.272-2.309.789-3.341l1.267-2.534c4.214-8.429 11.926-14.23 20.902-16.043-4.699-2.262-7.958-7.056-7.958-12.61h-1v-1c0-7.168 5.832-13 13-13h2.684c5.232 0 9.996 3.196 12 8h5.316c1.654 0 3 1.346 3 3s-1.346 3-3 3h-4c0 5.554-3.259 10.348-7.958 12.609 8.976 1.813 16.688 7.614 20.902 16.043l1.267 2.534c.517 1.033.789 2.189.789 3.342 0 4.12-3.352 7.472-7.472 7.472h-2.713c.113.314.185.648.185 1v2c0 1.654-1.346 3-3 3h-12c-1.654 0-3-1.346-3-3v-2c0-1.331.877-2.449 2.079-2.84l.216-2.16h-6.59l.216 2.16c1.202.391 2.079 1.509 2.079 2.84v2c0 1.654-1.346 3-3 3h-12c-1.654 0-3-1.346-3-3v-2c0-.352.072-.686.184-1h-2.713c-4.119 0-7.471-3.352-7.471-7.472zm9-.528v6h4 1c1.654 0 3-1.346 3-3s-1.346-3-3-3zm26.276-5.705c1.015.482 1.724 1.509 1.724 2.705v4c0 1.549-1.184 2.812-2.692 2.969l-.203 2.031h5.92c-.634-.838-1.025-1.87-1.025-3 0-2.387 1.684-4.382 3.924-4.877l-.51-6.123h-6.908zm6.971-4.295-.167-2h-6.175l-.2 2zm-18.247 6c-.552 0-1 .449-1 1v4c0 .551.448 1 1 1h10c.552 0 1-.449 1-1v-4c0-.551-.448-1-1-1zm-8.924 2.123c2.24.495 3.924 2.49 3.924 4.877 0 1.13-.391 2.162-1.026 3h5.92l-.203-2.031c-1.507-.157-2.691-1.42-2.691-2.969v-4c0-1.196.709-2.223 1.724-2.705l-.229-2.295h-6.908zm7.219-8.123-.2-2h-6.175l-.167 2zm3.705 19c0-.551-.448-1-1-1h-11-1c-.552 0-1 .449-1 1v2c0 .551.448 1 1 1h12c.552 0 1-.449 1-1zm19-1h-1-11c-.552 0-1 .449-1 1v2c0 .551.448 1 1 1h12c.552 0 1-.449 1-1v-2c0-.551-.448-1-1-1zm4-8h-5c-1.654 0-3 1.346-3 3s1.346 3 3 3h1 4zm-14.292-38c-1.602 0-3.068.749-4.001 2h16.293c.552 0 1-.449 1-1s-.448-1-1-1zm-11.661 2h5.335l.065-.13c1.104-2.205 3.239-3.623 5.661-3.828-1.41-3.606-4.108-5.373-5.11-5.924-1.335.722-5.54 3.508-5.951 9.882zm9.69-9.56c1.293 1.249 2.649 3.058 3.479 5.56h3.265c-1.389-2.713-3.858-4.718-6.744-5.56zm-16.692 9.56h5.003c.281-4.984 2.574-8.113 4.575-9.904-5.091.641-9.113 4.762-9.578 9.904zm12.955 14c6.617 0 12-5.383 12-12h-24c0 6.617 5.383 12 12 12zm0 2c-1.305 0-2.592.092-3.858.264.453 2.17 2.014 3.736 3.858 3.736s3.405-1.566 3.858-3.736c-1.266-.172-2.553-.264-3.858-.264zm-27 20.528c0 2.858 2.203 5.212 5 5.452v-7.98h2v-4h2v4h2.08l1-12h9.825l.8 8h8.59l.8-8h9.825l1 12h2.08v-4h2v4h2v7.98c2.797-.24 5-2.594 5-5.452 0-.844-.2-1.691-.578-2.448l-1.267-2.533c-3.905-7.809-11.021-13.207-19.319-14.944-.624 3.13-3.008 5.397-5.836 5.397s-5.212-2.267-5.836-5.397c-8.298 1.736-15.414 7.135-19.319 14.944l-1.267 2.534c-.378.756-.578 1.603-.578 2.447z" fill="url(#SVGID_1_)"/></svg>